<svg width="512" height="512" viewBox="0 0 64 64" fill="none" xmlns="http://www.w3.org/2000/svg">
  <defs>
    <linearGradient id="jinGold" x1="8" y1="8" x2="56" y2="56" gradientUnits="userSpaceOnUse">
      <stop stop-color="#f0d78c" />
      <stop offset="0.5" stop-color="#d4af37" />
      <stop offset="1" stop-color="#8b6914" />
    </linearGradient>
    <linearGradient id="jinRed" x1="32" y1="4" x2="32" y2="60" gradientUnits="userSpaceOnUse">
      <stop stop-color="#a31c1c" />
      <stop offset="1" stop-color="#5c0000" />
    </linearGradient>
    <filter id="softGlow" x="-20%" y="-20%" width="140%" height="140%">
      <feGaussianBlur stdDeviation="1.2" result="blur" />
      <feMerge>
        <feMergeNode in="blur" />
        <feMergeNode in="SourceGraphic" />
      </feMerge>
    </filter>
  </defs>
  <circle cx="32" cy="32" r="28" stroke="url(#jinGold)" stroke-width="1.25" opacity="0.9" />
  <circle cx="32" cy="32" r="24" stroke="url(#jinGold)" stroke-width="0.5" opacity="0.35" />
  <rect
    x="20"
    y="20"
    width="24"
    height="24"
    rx="2"
    stroke="url(#jinGold)"
    stroke-width="1"
    fill="rgba(139,0,0,0.15)"
  />
  <path
    d="M18 38c6-10 14-16 22-14 4 1 7 4 8 8-4-3-9-3-13 0-5 4-8 10-8 16 0 4 2 7 5 9-6-3-10-10-10-17 0-4 1-8 3-11"
    stroke="url(#jinRed)"
    stroke-width="2.25"
    stroke-linecap="round"
    stroke-linejoin="round"
    fill="none"
    filter="url(#softGlow)"
  />
  <path
    d="M38 24c4 2 7 6 8 11-3-4-8-6-13-5-3 0-6 2-8 5"
    stroke="url(#jinGold)"
    stroke-width="1.5"
    stroke-linecap="round"
    fill="none"
    opacity="0.85"
  />
  <circle cx="32" cy="34" r="3.5" fill="url(#jinGold)" opacity="0.95" />
</svg>
